<svg width="18" height="24" viewBox="0 0 18 24" fill="none" xmlns="http://www.w3.org/2000/svg">
<path d="M9 18V12.75M9 12.75C9.51795 12.75 10.0206 12.6844 10.5 12.561M9 12.75C8.48205 12.75 7.97943 12.6844 7.5 12.561M11.25 20.0394C10.5212 20.1777 9.76904 20.25 9 20.25C8.23096 20.25 7.47882 20.1777 6.75 20.0394M10.5 22.422C10.007 22.4736 9.50661 22.5 9 22.5C8.49339 22.5 7.99296 22.4736 7.5 22.422M11.25 18V17.8083C11.25 16.8254 11.9083 15.985 12.7585 15.4917C14.9955 14.1938 16.5 11.7726 16.5 9C16.5 4.85786 13.1421 1.5 9 1.5C4.85786 1.5 1.5 4.85786 1.5 9C1.5 11.7726 3.00446 14.1938 5.24155 15.4917C6.09173 15.985 6.75 16.8254 6.75 17.8083V18" stroke="#0F172A" stroke-width="1.5" stroke-linecap="round" stroke-linejoin="round"/>
</svg>
